<svg width="25" height="24" viewBox="0 0 25 24" fill="none" xmlns="http://www.w3.org/2000/svg">
<path fill-rule="evenodd" clip-rule="evenodd" d="M10.4487 2.68377C10.3126 2.27543 9.93043 2 9.5 2C9.06957 2 8.68743 2.27543 8.55132 2.68377L5.77924 11H2.5C1.94772 11 1.5 11.4477 1.5 12C1.5 12.5523 1.94772 13 2.5 13H6.5C6.93043 13 7.31257 12.7246 7.44868 12.3162L9.5 6.16228L14.5513 21.3162C14.6874 21.7246 15.0696 22 15.5 22C15.9304 22 16.3126 21.7246 16.4487 21.3162L19.2208 13H22.5C23.0523 13 23.5 12.5523 23.5 12C23.5 11.4477 23.0523 11 22.5 11H18.5C18.0696 11 17.6874 11.2754 17.5513 11.6838L15.5 17.8377L10.4487 2.68377Z" fill="#FFFFFE"/>
</svg>
